PathFileType	4	(X/Y/Z)	/Users/itak/Documents/Research/Walk-IL/dataset/trc/00126_00007.trc
DataRate	CameraRate	NumFrames	NumMarkers	Units	OrigDataRate	OrigDataStartFrame	OrigNumFrames
100.000000	100.000000	4	55	mm	100.000000	280	747
Frame#	Time	RPSI			LPSI			L3			STRN			T10			C7			CLAV			RBAK			LBAK			LSHO			LUPA			LAEL			LAOL			LWTS			LWPS			LFRA			LIFD			LHPS			LHTS			RSHO			RUPA			RAEL			RAOL			RWTS			RWPS			RFRA			RIFD			RHTS			RHPS			RBHD			LFHD			RFHD			LBHD			LHIP			RHIP			RASI			LASI			LKNE			LTHI			LANK			LTIP			LTOE			LMT1			LMT5			LHEE			RKNE			RTHI			RANK			RTIP			RTOE			RMT1			RMT5			RHEE			*53			*54			
		X1	Y1	Z1	X2	Y2	Z2	X3	Y3	Z3	X4	Y4	Z4	X5	Y5	Z5	X6	Y6	Z6	X7	Y7	Z7	X8	Y8	Z8	X9	Y9	Z9	X10	Y10	Z10	X11	Y11	Z11	X12	Y12	Z12	X13	Y13	Z13	X14	Y14	Z14	X15	Y15	Z15	X16	Y16	Z16	X17	Y17	Z17	X18	Y18	Z18	X19	Y19	Z19	X20	Y20	Z20	X21	Y21	Z21	X22	Y22	Z22	X23	Y23	Z23	X24	Y24	Z24	X25	Y25	Z25	X26	Y26	Z26	X27	Y27	Z27	X28	Y28	Z28	X29	Y29	Z29	X30	Y30	Z30	X31	Y31	Z31	X32	Y32	Z32	X33	Y33	Z33	X34	Y34	Z34	X35	Y35	Z35	X36	Y36	Z36	X37	Y37	Z37	X38	Y38	Z38	X39	Y39	Z39	X40	Y40	Z40	X41	Y41	Z41	X42	Y42	Z42	X43	Y43	Z43	X44	Y44	Z44	X45	Y45	Z45	X46	Y46	Z46	X47	Y47	Z47	X48	Y48	Z48	X49	Y49	Z49	X50	Y50	Z50	X51	Y51	Z51	X52	Y52	Z52	X53	Y53	Z53	X54	Y54	Z54	X55	Y55	Z55	

281	2.8	833.7529296875	1101.779663085938	-114.6593322753906	715.3466796875	1105.052368164062	-48.62458419799805	775.3651733398438	1142.30224609375	-74.47557067871094	666.6284790039062	1340.499145507812	-265.7276000976562	789.7353515625	1292.9453125	-48.96225738525391	747.5778198242188	1584.197021484375	-66.59166717529297	672.802490234375	1475.646850585938	-230.4376525878906	859.256591796875	1407.031616210938	-62.87505722045898	664.202880859375	1556.318969726562	-9.657110214233398	565.9404907226562	1537.038940429688	-50.11395645141602	522.2483520507812	1403.791259765625	1.845613837242126	498.6133728027344	1186.288208007812	-0.8583701252937317	581.518310546875	1171.053588867188	27.2117862701416	469.5494079589844	956.4343872070312	-153.31787109375	488.5440979003906	912.5076293945312	-77.6845703125	481.7899169921875	1074.125122070312	-29.72024345397949	472.9602661132812	774.103759765625	-218.1103668212891	468.4166564941406	845.4594116210938	-116.9829025268555	445.7779235839844	871.7476196289062	-179.8695831298828	880.0408935546875	1576.58984375	-203.9644470214844	947.6717529296875	1507.26025390625	-220.2403259277344	986.4253540039062	1214.742065429688	-221.8406829833984	906.2984619140625	1210.35693359375	-168.4296112060547	918.4000244140625	965.702880859375	-339.5225219726562	983.0874633789062	954.3616943359375	-289.6764526367188	992.781494140625	1141.833740234375	-249.8477172851562	898.0704956054688	772.1343383789062	-345.6792907714844	912.5681762695312	855.5873413085938	-364.8197021484375	972.6012573242188	853.278076171875	-321.1878662109375	762.5370483398438	1776.722534179688	-158.7015991210938	543.6268310546875	1787.62158203125	-150.619873046875	617.3583984375	1825.639038085938	-249.5095520019531	690.2551879882812	1741.782958984375	-49.4015998840332	573.861572265625	1015.751403808594	-82.04209899902344	871.3445434570312	1014.454467773438	-289.6293640136719	787.8958129882812	1086.568481445312	-329.6929321289062	560.5731201171875	1081.49560546875	-194.8320770263672	663.1495971679688	516.71923828125	-199.1257781982422	621.162841796875	654.636962890625	-141.7140502929688	792.5267944335938	31.27316284179688	-192.7406158447266	717.6744995117188	263.0324401855469	-146.5297088623047	760.124755859375	35.39872741699219	-424.8634338378906	821.7095336914062	38.50643920898438	-364.46923828125	726.1322021484375	38.84448623657227	-300.2495422363281	875.6174926757812	32.55136871337891	-151.6004180908203	768.8361206054688	553.4078979492188	-434.8676452636719	828.73046875	821.7109375	-369.0420837402344	1034.19580078125	153.4037475585938	-205.9640808105469	840.58251953125	442.2221374511719	-392.3469543457031	895.0849609375	60.4104118347168	-360.2086791992188	883.037109375	67.86792755126953	-290.0988464355469	1000.448913574219	87.84280395507812	-315.8527221679688	1013.993347167969	177.2772979736328	-137.1825866699219	nan	nan	nan	nan	nan	nan	
282	2.81	830.631591796875	1102.81005859375	-123.7048034667969	713.4292602539062	1105.089477539062	-55.31644439697266	772.7610473632812	1142.228637695312	-82.38240814208984	660.136474609375	1340.8330078125	-270.7920532226562	787.3273315429688	1293.1552734375	-55.71036529541016	744.6443481445312	1584.357299804688	-73.12443542480469	667.1759643554688	1475.971557617188	-235.7214965820312	856.2188110351562	1407.043212890625	-71.22177124023438	662.0877075195312	1556.676635742188	-14.89466953277588	563.2230834960938	1537.668212890625	-53.53935241699219	519.7249145507812	1404.184692382812	-1.588112235069275	494.8427124023438	1186.737548828125	-5.630743980407715	577.7716064453125	1170.73486328125	21.67440986633301	463.8099975585938	958.7901611328125	-160.5220184326172	482.8684692382812	913.86669921875	-85.45207977294922	477.3261108398438	1074.954833984375	-35.60824203491211	465.6562194824219	777.2189331054688	-227.4741058349609	462.1010131835938	847.419677734375	-125.4402008056641	439.3640441894531	874.6424560546875	-187.9840698242188	874.91796875	1576.55322265625	-212.5505676269531	942.3046875	1507.290893554688	-229.8448791503906	981.3992309570312	1214.863525390625	-231.6774597167969	902.1759033203125	1210.492797851562	-176.8512725830078	911.67138671875	965.5311889648438	-347.7518310546875	977.3637084960938	954.3875122070312	-299.0807800292969	987.3795776367188	1141.9208984375	-259.6676025390625	891.7113647460938	772.00537109375	-353.2421875	905.54833984375	855.357421875	-372.7650451660156	966.4798583984375	853.2608642578125	-330.2645568847656	758.0488891601562	1776.909790039062	-166.1075897216797	539.2652587890625	1787.866455078125	-155.3497467041016	611.7296752929688	1825.480834960938	-255.3221740722656	687.0944213867188	1742.459594726562	-55.59855651855469	571.6741943359375	1015.549438476562	-85.10821533203125	864.02099609375	1015.412658691406	-300.0334167480469	779.50146484375	1087.355712890625	-337.8224487304688	555.3755493164062	1081.466918945312	-197.7643890380859	660.7415771484375	516.3779907226562	-201.1608581542969	619.31787109375	654.5830078125	-144.0819702148438	792.5046997070312	31.31408500671387	-192.7103271484375	717.3455200195312	263.2476501464844	-147.0624237060547	759.8850708007812	35.26320648193359	-424.922607421875	821.6021728515625	38.63624572753906	-364.4705810546875	726.0496215820312	38.58565521240234	-300.2350769042969	875.602294921875	32.71044158935547	-151.5844421386719	754.0499877929688	556.198486328125	-445.7535095214844	818.1068725585938	823.4835815429688	-379.9330444335938	1019.813781738281	145.6199798583984	-237.0734252929688	825.4422607421875	442.7668762207031	-408.1989135742188	874.2736206054688	60.28480529785156	-390.3550720214844	864.6748046875	65.42404174804688	-319.6405029296875	981.4682006835938	85.32240295410156	-348.4898986816406	1002.353759765625	167.3518218994141	-166.8388214111328	nan	nan	nan	nan	nan	nan	
283	2.82	827.5957641601562	1103.973266601562	-132.416259765625	711.3973388671875	1105.103759765625	-62.07678604125977	770.0860595703125	1142.136962890625	-90.28947448730469	653.5831298828125	1341.14208984375	-275.794677734375	784.856201171875	1293.336669921875	-62.50262451171875	741.6139526367188	1584.483154296875	-79.61244964599609	661.469970703125	1476.273803710938	-240.9439849853516	853.0800170898438	1407.033935546875	-79.61068725585938	659.9296264648438	1556.957885742188	-20.09580993652344	560.4801025390625	1538.2138671875	-56.92835998535156	517.1541748046875	1404.527709960938	-5.019263744354248	491.0213317871094	1187.161376953125	-10.28780460357666	573.9876708984375	1170.420166015625	16.26029205322266	458.1581420898438	961.0404052734375	-167.5112915039062	477.1806030273438	915.2044677734375	-92.96013641357422	472.8318481445312	1075.761596679688	-41.35874557495117	458.6136474609375	780.1617431640625	-236.3851470947266	455.83056640625	849.3238525390625	-133.5744171142578	433.1109619140625	877.374267578125	-195.8103637695312	869.64697265625	1576.53564453125	-221.068603515625	936.7930297851562	1507.35693359375	-239.4046630859375	976.2131958007812	1215.016235351562	-241.5018615722656	897.8575439453125	1210.64697265625	-185.3566284179688	904.9702758789062	965.4070434570312	-356.0798950195312	971.5751342773438	954.4547729492188	-308.5076293945312	981.8511962890625	1142.054565429688	-269.4802551269531	885.5057983398438	771.9007568359375	-361.0258483886719	898.6564331054688	855.1795654296875	-380.86572265625	960.3974609375	853.3040161132812	-339.409423828125	753.4417114257812	1777.052368164062	-173.4332427978516	534.837890625	1788.072021484375	-160.0522308349609	606.0055541992188	1825.28564453125	-261.0709533691406	683.763427734375	1743.103759765625	-61.76788711547852	569.4940185546875	1015.298583984375	-88.09085845947266	856.5203857421875	1016.343505859375	-310.3482360839844	771.0046997070312	1088.105102539062	-345.8635559082031	550.3333740234375	1081.394653320312	-200.6256561279297	658.2937622070312	516.0452880859375	-203.2869720458984	617.4465942382812	654.517822265625	-146.5149536132812	792.4781494140625	31.34589195251465	-192.6797790527344	716.9483032226562	263.4866027832031	-147.6991271972656	759.6849975585938	35.14006805419922	-424.9485778808594	821.5451049804688	38.77639007568359	-364.461669921875	725.9876098632812	38.33927536010742	-300.2060546875	875.546142578125	32.90081405639648	-151.6096649169922	739.4434204101562	558.7982788085938	-455.9744567871094	807.3223266601562	825.1290283203125	-390.4791564941406	1003.980285644531	137.6819152832031	-267.6792907714844	810.180419921875	443.2021484375	-423.4994201660156	852.2767333984375	60.40389633178711	-419.8340759277344	844.9927978515625	63.05059814453125	-348.6551208496094	961.1011962890625	82.96987152099609	-380.4125366210938	989.1658935546875	157.1462860107422	-196.1979827880859	nan	nan	nan	nan	nan	nan	
284	2.83	824.6005249023438	1105.220825195312	-140.7840881347656	709.2317504882812	1105.086547851562	-68.89453887939453	767.3203735351562	1142.024291992188	-98.17733764648438	646.9657592773438	1341.417358398438	-280.751220703125	782.2775268554688	1293.47607421875	-69.37541961669922	738.4846801757812	1584.566772460938	-86.06136322021484	655.6875610351562	1476.541015625	-246.1146392822266	849.8369750976562	1407.00341796875	-88.04652404785156	657.7247924804688	1557.148559570312	-25.27147674560547	557.702880859375	1538.642944335938	-60.33908081054688	514.5425415039062	1404.814819335938	-8.477185249328613	487.1604919433594	1187.541870117188	-14.81995677947998	570.1954345703125	1170.111572265625	10.97588443756104	452.5664367675781	963.1678466796875	-174.2849426269531	471.4944763183594	916.4996948242188	-100.2157897949219	468.3166809082031	1076.524658203125	-46.96587371826172	451.814208984375	782.919677734375	-244.8721771240234	449.62109375	851.1480712890625	-141.3979644775391	426.9940490722656	879.9226684570312	-203.3551025390625	864.2294921875	1576.52880859375	-229.5173034667969	931.1360473632812	1507.44482421875	-248.9162445068359	970.87060546875	1215.193603515625	-251.3123626708984	893.3426513671875	1210.808959960938	-193.9435424804688	898.2954711914062	965.318359375	-364.5113830566406	965.7181396484375	954.5531616210938	-317.9544067382812	976.2023315429688	1142.229248046875	-279.2873840332031	879.4124755859375	771.8223876953125	-369.0301513671875	891.8726196289062	855.0413818359375	-389.1225280761719	954.3345336914062	853.3903198242188	-348.6066589355469	748.7146606445312	1777.150634765625	-180.6773529052734	530.3245239257812	1788.220458984375	-164.7378845214844	600.1890869140625	1825.036010742188	-266.763916015625	680.247802734375	1743.704467773438	-67.93399047851562	567.281982421875	1014.977111816406	-91.03868103027344	848.855712890625	1017.238708496094	-320.5546875	762.413818359375	1088.808715820312	-353.8023986816406	545.4890747070312	1081.265380859375	-203.4226226806641	655.8341674804688	515.708740234375	-205.5303802490234	615.5214233398438	654.435546875	-149.0417327880859	792.4469604492188	31.37232780456543	-192.6521453857422	716.4612426757812	263.7412719726562	-148.4712371826172	759.5317993164062	35.02176284790039	-424.9476013183594	821.5619506835938	38.91817474365234	-364.4498291015625	725.9443359375	38.11248016357422	-300.1671447753906	875.4662475585938	33.11891555786133	-151.6685333251953	725.1253051757812	561.1943969726562	-465.5864562988281	796.454345703125	826.646240234375	-400.6610107421875	986.7162475585938	129.7020568847656	-297.674560546875	794.8551635742188	443.5071716308594	-438.2634887695312	829.1571044921875	60.74758911132812	-448.4756774902344	824.0601806640625	60.80834579467773	-376.9971618652344	939.418701171875	80.76676177978516	-411.4476928710938	974.4443969726562	146.8103790283203	-225.1637878417969	nan	nan	nan	nan	nan	nan	
